name GIL06_xslow1.mot
datacolumns 153
datarows 4
range 1.18333340 1.20833325
endheader

                time	           pelvis_tx	           pelvis_ty	           pelvis_tz	         pelvis_tilt	         pelvis_list	     pelvis_rotation	       hip_flexion_r	     hip_adduction_r	      hip_rotation_r	        knee_angle_r	       ankle_angle_r	    subtalar_angle_r	         mtp_angle_r	       hip_flexion_l	     hip_adduction_l	      hip_rotation_l	        knee_angle_l	       ankle_angle_l	    subtalar_angle_l	         mtp_angle_l	    lumbar_extension	      lumbar_bending	     lumbar_rotation	     ground_force_vx	     ground_force_vy	     ground_force_vz	     ground_force_px	     ground_force_py	     ground_force_pz	     ground_force_vx	     ground_force_vy	     ground_force_vz	     ground_force_px	     ground_force_py	     ground_force_pz	     ground_torque_x	     ground_torque_y	     ground_torque_z	     ground_torque_x	     ground_torque_y	     ground_torque_z	    ground_marker_px	    ground_marker_py	    ground_marker_pz	    ground_marker_px	    ground_marker_py	    ground_marker_pz	    ground_marker_px	    ground_marker_py	    ground_marker_pz	    ground_marker_px	    ground_marker_py	    ground_marker_pz	    ground_marker_px	    ground_marker_py	    ground_marker_pz	    ground_marker_px	    ground_marker_py	    ground_marker_pz	    ground_marker_px	    ground_marker_py	    ground_marker_pz	    ground_marker_px	    ground_marker_py	    ground_marker_pz	    ground_marker_px	    ground_marker_py	    ground_marker_pz	    ground_marker_px	    ground_marker_py	    ground_marker_pz	    ground_marker_px	    ground_marker_py	    ground_marker_pz	    ground_marker_px	    ground_marker_py	    ground_marker_pz	    ground_marker_px	    ground_marker_py	    ground_marker_pz	    ground_marker_px	    ground_marker_py	    ground_marker_pz	    ground_marker_px	    ground_marker_py	    ground_marker_pz	    ground_marker_px	    ground_marker_py	    ground_marker_pz	    ground_marker_px	    ground_marker_py	    ground_marker_pz	    ground_marker_px	    ground_marker_py	    ground_marker_pz	    ground_marker_px	    ground_marker_py	    ground_marker_pz	    ground_marker_px	    ground_marker_py	    ground_marker_pz	    ground_marker_px	    ground_marker_py	    ground_marker_pz	    ground_marker_px	    ground_marker_py	    ground_marker_pz	    ground_marker_px	    ground_marker_py	    ground_marker_pz	    ground_marker_px	    ground_marker_py	    ground_marker_pz	    ground_marker_px	    ground_marker_py	    ground_marker_pz	    ground_marker_px	    ground_marker_py	    ground_marker_pz	    ground_marker_px	    ground_marker_py	    ground_marker_pz	    ground_marker_px	    ground_marker_py	    ground_marker_pz	    ground_marker_px	    ground_marker_py	    ground_marker_pz	    ground_marker_px	    ground_marker_py	    ground_marker_pz	    ground_marker_px	    ground_marker_py	    ground_marker_pz	    ground_marker_px	    ground_marker_py	    ground_marker_pz	    ground_marker_px	    ground_marker_py	    ground_marker_pz	    ground_marker_px	    ground_marker_py	    ground_marker_pz	    ground_marker_px	    ground_marker_py	    ground_marker_pz	    ground_marker_px	    ground_marker_py	    ground_marker_pz	    ground_marker_px	    ground_marker_py	    ground_marker_pz	
          1.18333340	          0.67115384	          0.84132069	         -0.25187331	         -5.37429047	         -1.63916516	          2.04752302	         21.10824203	          4.15476608	          5.48190689	         -4.17835903	        -11.11036587	          0.00000000	          0.00000000	         -9.17965889	         -0.09575926	         -1.08307385	        -14.52726746	          3.09265780	          0.00000000	          0.00000000	         -8.42185307	          1.31552076	          2.09073973	        -54.54085812	        411.34346687	        -10.86146361	          0.71538831	          0.00000000	         -0.19441965	         68.20546740	        397.48993199	          6.26273558	          0.36859473	          0.00000000	         -0.29608844	          0.00000000	         -0.49371631	          0.00000000	          0.00000000	         -0.74444568	          0.00000000	          0.56079066	          0.76809275	         -0.24736077	          0.54531813	          0.77327245	         -0.16747488	          0.53868294	          0.77068686	         -0.32294101	          0.64569712	          0.41183138	         -0.19301723	          0.44885314	          0.42479309	         -0.31395268	          0.71943235	          0.05992201	         -0.19420239	          0.26764140	          0.09971919	         -0.30836135	          0.67115384	          0.84132069	         -0.25187331	          0.67651331	          0.84340912	         -0.12629794	          0.66579437	          0.83923227	         -0.37744871	          0.42912215	          0.91840714	         -0.21083261	          0.42409241	          0.91812629	         -0.26421362	          0.65668881	          0.40989313	         -0.12239373	          0.44452846	          0.42406175	         -0.38531804	          0.61240554	          0.40399477	         -0.25841248	          0.44709396	          0.42165908	         -0.22223555	          0.71442825	          0.05874500	         -0.15604714	          0.25406572	          0.10666016	         -0.34480000	          0.72232276	          0.07074720	         -0.23116937	          0.27100554	          0.11736143	         -0.26752260	          0.46241310	          1.33872020	         -0.23578236	          0.59051168	          1.26561153	         -0.20656052	          0.58456993	          1.26677048	         -0.28801674	          0.56948882	          1.26172984	         -0.25817186	          0.61808407	          1.18580127	         -0.26165757	          0.76585543	          0.58082563	         -0.12731417	          0.67101204	          0.55162972	         -0.33287495	          0.72052848	          0.59474587	         -0.13947667	          0.62782425	          0.57907963	         -0.33795908	          0.71170354	          0.51865619	         -0.14991900	          0.59165454	          0.51611644	         -0.33089402	          0.77600855	          0.22122400	         -0.17470743	          0.30435902	          0.20258145	         -0.41439959	          0.73001337	          0.21772794	         -0.18335605	          0.30998519	          0.21342961	         -0.36726797	          0.83189487	          0.04986095	         -0.18855591	          0.35206819	          0.04957625	         -0.31413415	
          1.19166660	          0.67672431	          0.84214067	         -0.25074863	         -5.30281639	         -1.76766181	          2.01821637	         20.52870560	          4.40280676	          5.15659189	         -3.99764442	        -10.82913494	          0.00000000	          0.00000000	         -9.03981590	         -0.40483797	         -1.14018965	        -15.51536274	          2.40445685	          0.00000000	          0.00000000	         -8.42046261	          1.29988217	          2.68768477	        -53.93799541	        423.41713631	        -11.62763361	          0.71654114	          0.00000000	         -0.19399130	         67.27889005	        376.45835904	          5.00659273	          0.36911713	          0.00000000	         -0.29562415	          0.00000000	         -0.67640625	          0.00000000	          0.00000000	         -0.76385492	          0.00000000	          0.56644088	          0.76879317	         -0.24604720	          0.55098969	          0.77412730	         -0.16617154	          0.54432994	          0.77117687	         -0.32163009	          0.64792866	          0.41234985	         -0.19231239	          0.45563471	          0.42468020	         -0.31378490	          0.71950364	          0.05985663	         -0.19417468	          0.26995727	          0.10203557	         -0.30845731	          0.67672431	          0.84214067	         -0.25074863	          0.68210369	          0.84452385	         -0.12517588	          0.67134488	          0.83975744	         -0.37632141	          0.43468830	          0.91900742	         -0.20974152	          0.42964289	          0.91856492	         -0.26324445	          0.65859580	          0.41010216	         -0.12164834	          0.45132369	          0.42416784	         -0.38515300	          0.61458045	          0.40588471	         -0.25882712	          0.45743823	          0.41752118	         -0.22358236	          0.71456820	          0.05865284	         -0.15601133	          0.25642934	          0.10921950	         -0.34486660	          0.72167510	          0.07089001	         -0.23116924	          0.27360737	          0.11951020	         -0.26757863	          0.46851665	          1.33867359	         -0.23479210	          0.59588540	          1.26631963	         -0.20484155	          0.58905232	          1.26746643	         -0.28676936	          0.57461965	          1.26247561	         -0.25666890	          0.62290269	          1.18651605	         -0.26047504	          0.76947916	          0.57971126	         -0.12561268	          0.67746067	          0.55249995	         -0.33226302	          0.72473150	          0.59450543	         -0.13834803	          0.63440430	          0.58015621	         -0.33725172	          0.71456677	          0.51858377	         -0.14893053	          0.60004926	          0.51682067	         -0.33096662	          0.77681029	          0.22095482	         -0.17460574	          0.30794203	          0.20456210	         -0.41438594	          0.73047769	          0.21760452	         -0.18285142	          0.31378922	          0.21521364	         -0.36716971	          0.83208251	          0.04962559	         -0.18868285	          0.35315406	          0.04976704	         -0.31413144	
          1.20000005	          0.68228483	          0.84297156	         -0.24959332	         -5.22547340	         -1.87809718	          1.99414468	         19.92498970	          4.62608480	          4.88210011	         -3.77671385	        -10.56453037	          0.00000000	          0.00000000	         -8.86398888	         -0.71305627	         -1.18512380	        -16.56572533	          1.66056430	          0.00000000	          0.00000000	         -8.40536880	          1.51982260	          2.67032099	        -53.10799174	        435.98151460	        -12.55278287	          0.71762445	          0.00000000	         -0.19357384	         66.06121893	        355.58335131	          3.99318216	          0.36969373	          0.00000000	         -0.29522415	          0.00000000	         -0.84757129	          0.00000000	          0.00000000	         -0.76167377	          0.00000000	          0.57209980	          0.76949382	         -0.24472693	          0.55665749	          0.77495325	         -0.16486102	          0.54997540	          0.77168822	         -0.32031235	          0.65005827	          0.41281965	         -0.19154392	          0.46266088	          0.42448318	         -0.31372792	          0.71960956	          0.05981306	         -0.19412482	          0.27246556	          0.10441952	         -0.30855349	          0.68228483	          0.84297156	         -0.24959332	          0.68768162	          0.84560853	         -0.12404343	          0.67688805	          0.84033459	         -0.37514320	          0.44023535	          0.91958457	         -0.20859276	          0.43516284	          0.91899395	         -0.26224506	          0.66044372	          0.41028917	         -0.12084745	          0.45837536	          0.42420742	         -0.38509881	          0.61747849	          0.40770832	         -0.25985557	          0.46560749	          0.41611931	         -0.22426222	          0.71472025	          0.05857069	         -0.15595676	          0.25895694	          0.11185902	         -0.34491861	          0.72045851	          0.07126938	         -0.23111202	          0.27531698	          0.12215491	         -0.26747429	          0.47277904	          1.33981013	         -0.23294781	          0.60096180	          1.26699352	         -0.20342323	          0.59422547	          1.26826715	         -0.28515682	          0.57978195	          1.26324999	         -0.25524157	          0.62808263	          1.18729270	         -0.25906029	          0.77305126	          0.57867265	         -0.12396985	          0.68401217	          0.55343658	         -0.33167884	          0.72867030	          0.59421968	         -0.13717982	          0.64107925	          0.58114606	         -0.33688456	          0.71763420	          0.51861215	         -0.14822210	          0.60746241	          0.51729727	         -0.33082649	          0.77757680	          0.22067480	         -0.17440933	          0.31163296	          0.20657426	         -0.41436529	          0.73114634	          0.21738367	         -0.18173814	          0.31688586	          0.21701474	         -0.36699596	          0.83223456	          0.04943277	         -0.18878148	          0.35429007	          0.04996866	         -0.31410116	
          1.20833325	          0.68784118	          0.84380227	         -0.24840328	         -5.14305878	         -1.96496570	          1.97965050	         19.29884338	          4.81846952	          4.65421438	         -3.51613092	        -10.32536030	          0.00000000	          0.00000000	         -8.65153694	         -1.01703966	         -1.21470058	        -17.67678452	          0.85620302	          0.00000000	          0.00000000	         -8.42837715	          2.10728955	          1.67806184	        -52.36399683	        449.48486543	        -13.71499217	          0.71870258	          0.00000000	         -0.19316156	         64.58897677	        334.74080133	          3.14033489	          0.37029517	          0.00000000	         -0.29488803	          0.00000000	         -0.99586292	          0.00000000	          0.00000000	         -0.73937561	          0.00000000	          0.57777083	          0.77018344	         -0.24340197	          0.56232977	          0.77573144	         -0.16354145	          0.55562049	          0.77221996	         -0.31898624	          0.65209883	          0.41323340	         -0.19071676	          0.46992919	          0.42418590	         -0.31379580	          0.71976787	          0.05978701	         -0.19405146	          0.27517977	          0.10685671	         -0.30865049	          0.68784118	          0.84380227	         -0.24840328	          0.69325829	          0.84663743	         -0.12289642	          0.68242407	          0.84096712	         -0.37391016	          0.44575584	          0.92013329	         -0.20738745	          0.44065747	          0.91940606	         -0.26119417	          0.66224259	          0.41044363	         -0.11999497	          0.46567976	          0.42416775	         -0.38516942	          0.61998814	          0.40934786	         -0.26028451	          0.47180194	          0.41739908	         -0.22264123	          0.71489650	          0.05849423	         -0.15588278	          0.26166138	          0.11456447	         -0.34495601	          0.71967572	          0.07170527	         -0.23100276	          0.27789748	          0.12460501	         -0.26748332	          0.47725451	          1.34062660	         -0.23126328	          0.60528505	          1.26770616	         -0.20165235	          0.60009432	          1.26934338	         -0.28362137	          0.58493173	          1.26403177	         -0.25380042	          0.63360649	          1.18831074	         -0.25718799	          0.77658731	          0.57771474	         -0.12237506	          0.69067317	          0.55443835	         -0.33113268	          0.73243475	          0.59389687	         -0.13601066	          0.64734727	          0.58183408	         -0.33638871	          0.72056371	          0.51871276	         -0.14736539	          0.61351323	          0.51772970	         -0.32991704	          0.77832907	          0.22037886	         -0.17410517	          0.31544071	          0.20861314	         -0.41435251	          0.73217690	          0.21733584	         -0.18068971	          0.32053742	          0.21873355	         -0.36699864	          0.83236575	          0.04926385	         -0.18886746	          0.35548189	          0.05017266	         -0.31403673	
